<?xml version="1.0" encoding="UTF-8" standalone="no"?>
<!DOCTYPE svg PUBLIC "-//W3C//DTD SVG 1.1//EN" "http://www.w3.org/Graphics/SVG/1.1/DTD/svg11.dtd">
<svg width="100%" height="100%" viewBox="0 0 720 720" version="1.1" xmlns="http://www.w3.org/2000/svg" xmlns:xlink="http://www.w3.org/1999/xlink" xml:space="preserve" xmlns:serif="http://www.serif.com/" style="fill-rule:evenodd;clip-rule:evenodd;stroke-linejoin:round;stroke-miterlimit:2;">
    <g id="Layer1">
        <g transform="matrix(1,0,0,1,-12.1485,15.4866)">
            <rect x="-44.75" y="-36.455" width="805.266" height="812.047" style="fill:rgb(31,103,105);"/>
        </g>
        <g id="arsenic" transform="matrix(0.87455,0,0,0.87455,45.1619,52.7922)">
            <g transform="matrix(1,2.85727e-16,-2.44763e-16,1.16736,12.3449,-47.6711)">
                <path d="M249.644,587.448C254.903,587.443 259.178,591.096 259.184,595.601C259.19,600.106 254.925,603.768 249.666,603.773L92.51,603.929C89.518,603.932 86.698,602.732 84.895,600.687C83.092,598.642 82.515,595.99 83.336,593.526C83.336,593.526 192.741,265.644 280.184,134.478C293.869,113.952 307.155,98.116 319.351,88.673C329.28,80.986 338.952,77.291 347.655,77.291C356.359,77.291 366.03,80.986 375.959,88.673C388.155,98.116 401.441,113.952 415.126,134.478C502.569,265.644 611.974,593.526 611.974,593.526C612.795,595.99 612.218,598.642 610.415,600.687C608.612,602.732 605.792,603.932 602.801,603.929L445.644,603.773C440.385,603.768 436.12,600.106 436.126,595.601C436.133,591.096 440.407,587.443 445.666,587.448L590.126,587.592C573.519,538.889 500.961,330.476 431.594,199.044C411.644,161.243 392.052,129.879 374.099,110.87C368.625,105.074 363.373,100.489 358.3,97.393C354.533,95.095 351.051,93.616 347.655,93.616C344.259,93.616 340.778,95.095 337.01,97.393C331.937,100.489 326.685,105.074 321.211,110.87C303.258,129.879 283.667,161.243 263.716,199.044C194.349,330.476 121.792,538.889 105.185,587.592L249.644,587.448Z" style="fill:#e8e8e8;"/>
            </g>
            <g transform="matrix(-1,2.79263e-16,-4.20232e-16,-1.17375,707.655,751.068)">
                <path d="M347.655,77.336C356.363,77.336 366.044,81.03 375.978,88.721C388.172,98.161 401.455,113.995 415.137,134.517C502.578,265.678 611.978,593.549 611.978,593.549C612.794,595.997 612.215,598.63 610.414,600.661C608.613,602.691 605.799,603.885 602.812,603.885L92.499,603.885C89.511,603.885 86.697,602.691 84.896,600.661C83.095,598.63 82.516,595.997 83.332,593.549C83.332,593.549 192.733,265.678 280.173,134.517C293.855,113.995 307.138,98.161 319.332,88.721C329.266,81.03 338.947,77.336 347.655,77.336ZM347.655,93.572C344.265,93.572 340.791,95.05 337.031,97.345C331.956,100.441 326.703,105.027 321.227,110.825C303.272,129.836 283.677,161.204 263.724,199.011C194.317,330.519 121.716,539.095 105.161,587.649L590.149,587.649C573.595,539.095 500.993,330.519 431.586,199.011C411.633,161.204 392.039,129.836 374.083,110.825C368.608,105.027 363.355,100.441 358.28,97.345C354.519,95.05 351.046,93.572 347.655,93.572Z" style="fill:#e8e8e8;"/>
            </g>
        </g>
    </g>
</svg>
